<?xml version="1.0" encoding="UTF-8"?>
<svg id="Layer_1" data-name="Layer 1" xmlns="http://www.w3.org/2000/svg" viewBox="0 0 365.65 375.48">
  <path d="M0,181.07c1.65-48.58,12.78-87.67,40.97-120.5,18.44-21.47,41.88-35.12,69.14-42.66,10.73-2.96,21.06-7.32,31.66-10.77,35.56-11.58,70.47-8.79,104.27,6.33,60.33,26.99,100.23,71.93,115.27,136.84,10.94,47.19,.63,91.36-24.17,132.25-21.5,35.45-51.29,61.83-89.39,78.64-67.91,29.96-149.66,11.67-198.25-44.45C23.66,286.91,8.97,252.01,3.14,213.28c-1.9-12.65-2.51-25.5-3.14-32.21Zm339.65,2.26c-.02-20.98-4.36-42.04-14.44-61.68-17.54-34.18-43.36-60.4-77.08-78.74-35.3-19.2-71.82-21.62-109.39-7.29-5.66,2.16-11.25,4.49-16.87,6.76-.62,.25-1.19,.59-1.78,.9-14.65,7.56-29.21,15.31-43.98,22.61-6.77,3.35-12.06,8.16-16.8,13.82-21.98,26.28-31.42,57.18-32.98,90.8-1.74,37.4,7.52,72.35,25.22,105.1,11.24,20.8,25.79,39.03,46.15,51.57,38.88,23.94,80.85,28.39,124,15.4,68.68-20.69,116.88-86.3,117.96-159.25Z"/>
  <path d="M170.92,274.87c-10.35-1.45-20.75-2.61-31.04-4.45-8.62-1.54-12.55-7.72-10.99-15.93,1.6-8.38,8.3-13.13,16.68-12.01,7.9,1.06,15.81,2.57,23.74,2.78,35.41,.93,63.37-19.17,74.3-52.94,.61-1.9,1.16-3.82,1.84-5.7,2.89-7.94,10.06-11.53,17.93-9.01,8.07,2.58,11.86,9.37,9.46,17.67-7.93,27.43-22.88,49.74-47.91,64.43-16.61,9.75-34.77,13.95-54.02,15.16Z"/>
  <path d="M207.62,150.27c-7.58,0-14.18-6.99-14.29-15.11-.09-7.18,6.92-13.88,14.38-13.72,7.43,.15,14.17,7.57,14.05,15.48-.1,7.17-6.66,13.36-14.15,13.35Z"/>
  <path d="M121.14,198.67c-7.7,.07-14.27-6.74-14.37-14.9-.1-7.65,6.15-13.79,14.03-13.79,7.54,0,14.23,7.12,14.21,15.13-.02,7.28-6.38,13.5-13.87,13.57Z"/>
</svg>